<?xml version="1.0" standalone="no"?>
<!DOCTYPE svg PUBLIC "-//W3C//DTD SVG 20010904//EN"
 "http://www.w3.org/TR/2001/REC-SVG-20010904/DTD/svg10.dtd">
<svg version="1.0" xmlns="http://www.w3.org/2000/svg"
 width="310.000000pt" height="296.000000pt" viewBox="0 0 310.000000 296.000000"
 preserveAspectRatio="xMidYMid meet">

<g transform="translate(0.000000,296.000000) scale(0.100000,-0.100000)"
fill="#000000" stroke="none">
<path d="M0 1480 l0 -1480 1550 0 1550 0 -2 698 c0 383 -3 681 -5 662 -8 -78
-45 -238 -73 -320 -30 -86 -96 -240 -103 -240 -2 0 -73 16 -158 36 -85 20
-226 48 -314 63 l-160 26 -3 98 -3 98 43 52 c24 28 62 74 85 101 49 55 54 76
20 76 -16 0 -43 -20 -81 -60 -32 -33 -59 -60 -62 -60 -2 0 -3 149 -2 331 3
303 4 333 21 343 12 8 22 8 35 0 14 -9 18 -32 24 -120 4 -60 9 -120 10 -133 3
-20 13 -13 88 63 46 47 92 86 102 86 25 0 49 -39 37 -61 -5 -10 -59 -69 -119
-132 -89 -92 -110 -120 -110 -144 l0 -29 68 4 c64 4 69 6 119 53 28 27 59 49
67 49 18 0 46 -27 46 -45 0 -8 -34 -52 -75 -97 -41 -46 -75 -89 -75 -97 0 -10
11 -12 48 -7 160 23 321 189 354 366 18 93 -2 206 -53 308 -48 95 -102 153
-188 203 -33 19 -66 45 -73 58 -7 13 -35 44 -63 70 -145 132 -348 158 -533 68
-78 -37 -164 -127 -188 -195 -14 -39 -26 -53 -67 -77 -64 -39 -129 -111 -164
-183 -25 -52 -28 -67 -28 -167 0 -122 13 -171 70 -260 70 -109 151 -162 293
-190 50 -10 41 10 -43 102 -74 80 -87 107 -63 131 23 23 54 12 103 -38 l49
-50 73 0 73 0 0 41 c0 39 -7 48 -126 172 -69 73 -129 139 -134 147 -14 27 7
60 37 60 23 0 47 -19 125 -102 l97 -103 1 112 c0 88 3 115 16 127 20 21 37 20
57 -2 15 -17 17 -55 17 -340 0 -195 -4 -322 -9 -322 -6 0 -33 27 -62 60 -29
32 -59 62 -67 65 -15 5 -42 -11 -42 -26 0 -4 35 -50 79 -101 43 -51 83 -103
90 -115 6 -12 11 -56 11 -98 l0 -77 -38 6 c-20 4 -171 9 -334 12 -257 6 -433
0 -633 -19 -19 -2 -20 5 -22 146 -2 159 -4 168 -62 230 -58 63 -150 84 -228
52 -45 -19 -67 -38 -104 -89 l-29 -39 0 -194 c0 -191 0 -194 -22 -203 -13 -5
-84 -32 -158 -60 -177 -66 -169 -61 -137 -104 l27 -35 54 24 c75 33 326 111
416 129 259 52 514 72 810 62 303 -10 335 -19 122 -34 -301 -22 -616 -77 -961
-168 -131 -34 -307 -96 -326 -115 -6 -6 0 -18 16 -34 l25 -26 55 24 c280 123
758 223 1174 246 242 14 578 14 720 1 112 -11 274 -36 282 -44 12 -12 -91
-142 -191 -242 -175 -174 -348 -278 -591 -357 -166 -54 -293 -77 -450 -84
-380 -16 -747 96 -1043 317 -209 155 -388 403 -476 659 -67 194 -98 424 -82
604 l8 77 595 0 c390 0 601 4 614 10 24 14 24 36 0 50 -13 6 -223 10 -611 10
-470 0 -591 3 -587 13 2 6 10 35 17 63 l13 51 111 7 c61 3 376 6 699 6 536 0
588 1 594 16 16 43 5 44 -704 44 -370 0 -673 2 -673 4 0 13 34 82 44 88 6 4
254 8 551 8 297 0 546 4 553 9 8 5 12 17 10 27 -3 18 -25 19 -518 25 -283 3
-527 7 -542 8 l-26 1 21 40 22 40 658 0 c600 0 658 1 664 16 3 9 2 24 -4 33
-9 14 -73 16 -637 19 -376 1 -626 6 -626 11 0 6 26 43 58 83 202 253 547 462
893 538 503 112 1045 -38 1430 -396 232 -215 401 -531 438 -819 5 -46 9 158
10 603 l1 672 -1550 0 -1550 0 0 -1480z m898 -177 c-20 -21 -41 -48 -47 -60
-7 -14 -11 -89 -11 -203 0 -141 -3 -181 -12 -178 -10 4 -14 53 -16 190 l-2
186 27 32 c23 28 79 70 93 70 2 0 -12 -17 -32 -37z"/>
<path d="M835 2600 l-50 -30 528 0 c470 0 528 2 534 16 14 37 -4 39 -490 41
l-472 3 -50 -30z"/>
<path d="M538 2383 l-32 -33 416 0 c357 0 417 2 428 15 10 12 10 18 0 30 -10
12 -72 15 -397 17 l-384 3 -31 -32z"/>
<path d="M2045 628 c-274 -20 -622 -87 -900 -173 -168 -52 -305 -104 -305
-115 0 -11 153 -75 273 -115 484 -158 1077 -26 1446 321 45 42 81 80 81 85 0
11 -433 9 -595 -3z"/>
</g>
</svg>
